<svg xmlns="http://www.w3.org/2000/svg" xmlns:xlink="http://www.w3.org/1999/xlink" width="400" zoomAndPan="magnify" viewBox="0 0 300 299.999988" height="400" preserveAspectRatio="xMidYMid meet" version="1.0"><defs><clipPath id="2156861c0d"><path d="M 11.75 11.75 L 288.464844 11.75 L 288.464844 288.464844 L 11.75 288.464844 Z M 11.75 11.75 " clip-rule="nonzero"/></clipPath><clipPath id="b3ed518517"><path d="M 150 288.253906 C 73.648438 288.253906 11.75 226.351562 11.75 150 C 11.75 73.648438 73.648438 11.75 150 11.75 C 226.351562 11.75 288.253906 73.648438 288.253906 150 C 288.253906 226.351562 226.351562 288.253906 150 288.253906 " clip-rule="nonzero"/></clipPath><clipPath id="258b9de16d"><path d="M 85.1875 103.402344 L 215 103.402344 L 215 133.363281 L 85.1875 133.363281 Z M 85.1875 103.402344 " clip-rule="nonzero"/></clipPath><clipPath id="5e5e38b7d1"><path d="M 202.59375 115.054688 L 211.972656 124.386719 C 213.664062 126.03125 214.742188 127.769531 213.710938 130.144531 C 212.722656 132.398438 210.796875 132.847656 208.539062 132.847656 L 146.007812 132.824219 C 128.003906 132.824219 110.003906 132.824219 92.003906 132.824219 L 90.6875 133.011719 C 88.878906 131.976562 87.28125 131.273438 86.457031 130.050781 C 85.445312 128.546875 85.894531 126.664062 87.230469 125.324219 L 107.890625 104.761719 C 108.78125 103.894531 110.449219 103.472656 111.765625 103.472656 L 188.636719 103.496094 C 190.023438 103.496094 191.691406 104.316406 192.722656 105.28125 L 202.59375 115.054688 " clip-rule="nonzero"/></clipPath><clipPath id="333721c6c3"><path d="M 100 148.636719 L 200 148.636719 L 200 200.925781 L 100 200.925781 Z M 100 148.636719 " clip-rule="nonzero"/></clipPath><clipPath id="b5cde5c19d"><path d="M 180.832031 200.574219 L 179.492188 199.234375 C 170.773438 190.539062 162.644531 182.382812 154.511719 174.253906 C 150.917969 170.65625 149.0625 170.632812 145.511719 174.183594 L 121.121094 198.574219 C 120.554688 199.140625 119.96875 199.726562 119.285156 200.410156 L 118.136719 199.515625 C 112.542969 193.945312 107.417969 188.824219 102.296875 183.699219 C 99.453125 180.855469 99.476562 178.71875 102.34375 175.851562 L 127.910156 150.378906 C 128.734375 149.554688 130.214844 149.015625 131.390625 148.992188 L 168.824219 148.96875 C 169.929688 148.96875 171.292969 149.53125 172.089844 150.308594 L 197.332031 175.453125 C 200.667969 178.789062 200.667969 180.714844 197.261719 184.101562 L 180.832031 200.527344 " clip-rule="nonzero"/></clipPath></defs><g clip-path="url(#2156861c0d)"><g clip-path="url(#b3ed518517)"><rect x="-30" width="360" fill="#2c2747" y="-29.999999" height="359.999986" fill-opacity="1"/></g></g><g clip-path="url(#258b9de16d)"><g clip-path="url(#5e5e38b7d1)"><rect x="-30" width="360" fill="#eeff15" y="-29.999999" height="359.999986" fill-opacity="1"/></g></g><g clip-path="url(#333721c6c3)"><g clip-path="url(#b5cde5c19d)"><rect x="-30" width="360" fill="#eeff15" y="-29.999999" height="359.999986" fill-opacity="1"/></g></g></svg>